<mxfile host="Electron" modified="2023-12-29T18:52:54.961Z" agent="Mozilla/5.0 (Windows NT 10.0; Win64; x64) AppleWebKit/537.36 (KHTML, like Gecko) draw.io/22.1.16 Chrome/120.0.6099.109 Electron/28.1.0 Safari/537.36" etag="Bb4hBOfNXBFrHTaigK1T" version="22.1.16" type="device">
  <diagram name="PÃ¡gina-1" id="zVq37h6lomLLcfAt7k5f">
    <mxGraphModel dx="1050" dy="669" grid="1" gridSize="10" guides="1" tooltips="1" connect="1" arrows="1" fold="1" page="1" pageScale="1" pageWidth="1169" pageHeight="1654" math="0" shadow="0">
      <root>
        <mxCell id="0" />
        <mxCell id="1" parent="0" />
        <mxCell id="ixUstq1VDY_FVAzt519e-5" style="edgeStyle=orthogonalEdgeStyle;rounded=0;orthogonalLoop=1;jettySize=auto;html=1;entryX=0;entryY=0.5;entryDx=0;entryDy=0;" edge="1" parent="1" source="ixUstq1VDY_FVAzt519e-2" target="ixUstq1VDY_FVAzt519e-4">
          <mxGeometry relative="1" as="geometry" />
        </mxCell>
        <mxCell id="ixUstq1VDY_FVAzt519e-2" value="Base datos, solo los comentarios" style="shape=datastore;whiteSpace=wrap;html=1;" vertex="1" parent="1">
          <mxGeometry x="40" y="50" width="130" height="130" as="geometry" />
        </mxCell>
        <mxCell id="ixUstq1VDY_FVAzt519e-8" style="edgeStyle=orthogonalEdgeStyle;rounded=0;orthogonalLoop=1;jettySize=auto;html=1;entryX=0;entryY=0.5;entryDx=0;entryDy=0;" edge="1" parent="1" source="ixUstq1VDY_FVAzt519e-4" target="ixUstq1VDY_FVAzt519e-7">
          <mxGeometry relative="1" as="geometry" />
        </mxCell>
        <mxCell id="ixUstq1VDY_FVAzt519e-9" value="Lista de los comentarios normalizados" style="edgeLabel;html=1;align=right;verticalAlign=middle;resizable=0;points=[];" vertex="1" connectable="0" parent="ixUstq1VDY_FVAzt519e-8">
          <mxGeometry x="0.2366" relative="1" as="geometry">
            <mxPoint x="227" y="-77" as="offset" />
          </mxGeometry>
        </mxCell>
        <mxCell id="ixUstq1VDY_FVAzt519e-4" value="" style="image;aspect=fixed;perimeter=ellipsePerimeter;html=1;align=center;shadow=0;dashed=0;fontColor=#4277BB;labelBackgroundColor=default;fontSize=12;spacingTop=3;image=img/lib/ibm/applications/application_logic.svg;" vertex="1" parent="1">
          <mxGeometry x="310" y="55" width="125" height="125" as="geometry" />
        </mxCell>
        <mxCell id="ixUstq1VDY_FVAzt519e-6" value="Normalizacion del texto:&lt;br&gt;&lt;ul&gt;&lt;li&gt;Correcion de ortografia&lt;/li&gt;&lt;li&gt;Eematizacion&lt;/li&gt;&lt;li&gt;Eliminacion de stopwords&lt;/li&gt;&lt;li&gt;Eliminacion de caracteres especiales&lt;/li&gt;&lt;li&gt;Eliminacion de signos de puntuacion&lt;/li&gt;&lt;li&gt;Eliminacion de numeros&amp;nbsp;&lt;/li&gt;&lt;li&gt;Eliminar ciertas palabras&lt;/li&gt;&lt;li&gt;Poner todo en minuscula&lt;/li&gt;&lt;li&gt;Eliminar hashtags&lt;/li&gt;&lt;/ul&gt;" style="text;html=1;strokeColor=none;fillColor=none;align=left;verticalAlign=middle;whiteSpace=wrap;rounded=0;" vertex="1" parent="1">
          <mxGeometry x="280" y="175" width="240" height="190" as="geometry" />
        </mxCell>
        <mxCell id="ixUstq1VDY_FVAzt519e-17" style="edgeStyle=orthogonalEdgeStyle;rounded=0;orthogonalLoop=1;jettySize=auto;html=1;" edge="1" parent="1" source="ixUstq1VDY_FVAzt519e-7" target="ixUstq1VDY_FVAzt519e-11">
          <mxGeometry relative="1" as="geometry" />
        </mxCell>
        <mxCell id="ixUstq1VDY_FVAzt519e-7" value="" style="image;aspect=fixed;perimeter=ellipsePerimeter;html=1;align=center;shadow=0;dashed=0;fontColor=#4277BB;labelBackgroundColor=default;fontSize=12;spacingTop=3;image=img/lib/ibm/applications/annotate.svg;" vertex="1" parent="1">
          <mxGeometry x="610" y="55" width="125" height="125" as="geometry" />
        </mxCell>
        <mxCell id="ixUstq1VDY_FVAzt519e-10" value="&lt;b&gt;&lt;font style=&quot;font-size: 14px;&quot;&gt;Funcion normalizadora&lt;/font&gt;&lt;/b&gt;" style="text;html=1;strokeColor=none;fillColor=none;align=center;verticalAlign=middle;whiteSpace=wrap;rounded=0;" vertex="1" parent="1">
          <mxGeometry x="284.38" y="25" width="176.25" height="30" as="geometry" />
        </mxCell>
        <mxCell id="ixUstq1VDY_FVAzt519e-11" value="" style="image;aspect=fixed;perimeter=ellipsePerimeter;html=1;align=center;shadow=0;dashed=0;fontColor=#4277BB;labelBackgroundColor=default;fontSize=12;spacingTop=3;image=img/lib/ibm/applications/application_logic.svg;" vertex="1" parent="1">
          <mxGeometry x="860" y="55" width="125" height="125" as="geometry" />
        </mxCell>
        <mxCell id="ixUstq1VDY_FVAzt519e-15" value="&lt;b&gt;&lt;font style=&quot;font-size: 14px;&quot;&gt;Extraccion de palabras claves&lt;/font&gt;&lt;/b&gt;" style="text;html=1;strokeColor=none;fillColor=none;align=center;verticalAlign=middle;whiteSpace=wrap;rounded=0;" vertex="1" parent="1">
          <mxGeometry x="840" y="20" width="176.25" height="30" as="geometry" />
        </mxCell>
      </root>
    </mxGraphModel>
  </diagram>
</mxfile>
